<?xml version="1.0" encoding="UTF-8"?>
<!-- Generator: Adobe Illustrator 26.3.1, SVG Export Plug-In . SVG Version: 6.00 Build 0)  -->
<svg xmlns="http://www.w3.org/2000/svg" xmlns:xlink="http://www.w3.org/1999/xlink" version="1.1" id="Capa_1" x="0px" y="0px" viewBox="0 0 595.3 349" style="enable-background:new 0 0 595.3 349;" xml:space="preserve">
<style type="text/css">
	.st0{fill:#8C734B;}
	.st1{fill:#002D5D;}
</style>
<path class="st0" d="M284,152.6c22.2-4.1,14.8-14.7,14.8-14.7C297.4,145.6,289.3,150.2,284,152.6"></path>
<path class="st0" d="M317.3,152.6c-22.2-4.1-14.8-14.7-14.8-14.7C303.9,145.6,312,150.2,317.3,152.6"></path>
<path class="st0" d="M253.3,58.1c0.7,0.8,1,1.8,1,1.8s3.2-3.7,0.7-7.1c-0.8-1-2.4,0.4-2.7-0.5c1.9-3.8-0.1-6.8-4.8-7.3  c-0.3,0.6,0.3,1.5,0.9,3.2c0.7,1.7-2.1,2.2-1.9,0.2c0-0.7-0.9-2.6-4.5-1.4h-1.7c0,0,1.2,2.2,2,3.2c0.7,0.9,1.3,1,2.6,1  c1.3,0,1.3,2.2-0.3,2.2c-1.5,0-5.5-3.3-6.8,2c0,0-0.5,1.7-0.5,4.2c1.8-0.2,4.5,0.5,5.6,1.8c1,1.2,3.9,1,4.6-1.9  c0.1,1.9,0.2,1.6,0.5,2.4c0.3,0.7,0.1,1.7,0.1,1.7s4.7,0,4.7-2.8c0-2.6-3-2.1-1.7-3.5C251.5,56.4,252.6,57.2,253.3,58.1"></path>
<path class="st0" d="M241.3,42.6c-1.4,0.5-1.4,1.9-1.4,1.9s1.3,0.2,2.5,0.1c0.4,0,1.8-0.2,1.7-2c0.1-0.1,0.2-4.1,4.1-7.2  c0,0,0.3-0.7-0.6-1.3c-1-0.6-2.3,0.4-4.3-1.5c-0.4,0.8-0.9,2.5-0.1,3.1c0.5,0.7-0.5,0.8-1.2-0.1c-1.1-1.5-5.1,0.7-7.1,2.3  c1.6,0.2,2.3,2,2.9,3.7c0.6,1.6,2,0.1,2.7-0.6C241.3,40.4,242.5,42.1,241.3,42.6"></path>
<path class="st0" d="M230.6,29.4c0.5,2.4,2,1.8,2.5,1.3c1.2-1,1.6-0.2,1.9,0.1c0.4,0.4,0.1,0.8-1,1.1c-1.2,0.4-0.8,1.6-1.1,2.5  c2.6,1.3,3.5-0.7,3.8-1.8c0.3-1,1.6,0.2,1.4,0.7c-0.2,0.4-0.5,0.1-0.5,1.1c1.7-1.4,3.8-0.8,3.9-1.5c0.4-3,0.1-2.1,0-3.1  c4.4,0.4,1.8-4.3,1.3-5.4c0,0-0.7,0.3-2,1.3c0.3-0.5,0.5-1.9-0.5-2.6c-1-0.9-2.3-0.2-3.9-0.9c0.2,0.5,0.2,1.1,0,1.6  c-0.5,0.9,0.4,1.3,0,1.5c-0.5,0.2-0.7-0.7-1.5-1.3c-1.2-1.2-4.2,0.2-6.1,2.3C229.6,26.6,230.5,28.1,230.6,29.4"></path>
<path class="st0" d="M258,44.6c1.9-1,1.4-2.9,0.5-3.2c-0.9-0.3-0.9-1.3,0.4-0.9c1.4,0.4,2.5,2.5,2.5,2.5s0.9-0.9,0.6-1.8  c-0.1,0-1.5-1.2-2.7-3.3c-1.4-1.8-1.7-3.8-3.7-4.1c2.4-3.6-3.1-2-3.8-1.6c-0.8,0.4-1.4,1.1-1.4,1.1s1.1,2.1,2.2,2  c1-0.1,1.7,0.3,1.4,0.8c-0.3,0.5-1,0.5-2.5-0.4c-2.1-1-5.1,4.3-5.6,6.7c1.7,0,4.1,1.4,5.5,2.1c1,0.6,2.2-0.2,2.8-1  c0.2-0.3,0.4,0.7,0.6,1.2c0.1,0.6,0.6,1.3,0.5,2.5C255.5,46.5,256,45.6,258,44.6"></path>
<path class="st0" d="M264.6,39.3c1.1-1.1,1.7-1.5,2.6-0.7c0.6,1.4-0.9,1.2-1.6,2.4c-0.8,1.2-1,1.9-1,1.9s5.3,0.9,4.6-1  c-0.4-1.2-0.2-2.3,1.1-2c1.3,0.3,0.9,1.3,0.7,2c-0.1,0.8,0.1,1.1,0.1,1.1s2.9,0.5,4-1.1c1-1.6-0.6-3.8-1.3-5.6  c0.7,0,4.1-1.6,1.7-5.6c-0.7,0.4-1.4,0.5-1.9,1.9c-0.3,1-1.2,1-1.9,0.8c-0.7-0.3-0.3-1,0.3-1.4c0.6-0.4,0.6-3-1.9-3  c-2.5,0-3,0.3-3.8-0.2c0.3,1,0.4,2,1.2,2.9c0.8,0.9,0.1,1.9-0.4,1.8c-0.9-0.3-1.2-1-2.5-1.6c-1.3-0.6-2.6-1.4-6.2,1.7  c0,0,1.4,1.3,2.5,3.5C261.8,39.4,263.5,40.4,264.6,39.3"></path>
<path class="st0" d="M244,23.5c0.6,1.4,1.2,2.7,2.7,2.5c1.5-0.1,1-0.4,1.7-0.5c0.7-0.3,1.7,0.8,1.3,1.2c-0.2,0.1-2,2.1-3.7,2  c1.2,3.1,3.1,3,4.3,2.4c0.9-0.4,2.4-1.6,4.5-1.2c0,0,1.2-0.2,1.7-1c0.4-0.4-1.2-2.4-1-2.8c0.6-0.6,1.8,0.5,2.2-1  c0.4-2.1-0.2-5.3-0.2-5.3s-2.3,1.6-2.7,1.5c-0.3-0.2-0.6-0.4-0.2-0.8c0.4-0.4,0.7-4-1.6-3.8c-1.9,0.2-2.9-0.1-3.2-0.2  c-0.2,1.5,0.6,2.3,1.2,3c0.5,0.7-0.7,1.5-1.2,1c-0.5-0.5-1.1-2.6-3-2.5c-1.8,0.1-4.1,0.9-5.6,2C242.5,20.7,243.3,22,244,23.5"></path>
<path class="st0" d="M261.6,26.7c-0.4,0.7-0.9,2.8-0.9,2.8s1-0.1,2.8,0.1c1.8,0.1,1-2.7,1-2.7s3,1,4.7,0.7c3.4-0.3,4-3,4-3  c-1.6-0.8-2.2,0.3-3.2,0.2c-0.9-0.1-0.7-1.7,0.5-1.4c1.2,0.2,2.6-0.1,2.7-1.7c0.1-1.5-0.8-3.2-0.8-3.2s-1.7,0.9-2.4,2.3  c-0.8,1.4-2.4-0.2-1.8-0.5c2.1-1.6,1.4-3.8-1.1-4.4c-2.5-0.7-3.1-2.2-3.3-2.8c-6.4,4.6-3.3,8.4-2.6,8.9c0.8,0.3,0.7,1.7-0.1,1.7  c-0.9,0-0.6-0.9-2-0.9C259,26.3,260.1,27.4,261.6,26.7"></path>
<path class="st0" d="M278.5,20.5c1.2-0.4,1,2.3,0.2,2.2c-0.8-0.1-1.2-0.2-2.1,0.2c-0.9,0.5-1.4,0.1-1.4,0.1s0.4,0.5,0.8,1.8  c0.7,2.7,4.2,3.2,5.5,2.1c2-1.5,2.4-2.9,2.4-2.9s1,1.8,1.2,2.5c0.6,1.5,1.3,1.5,3.1,1.1c1.9-0.5,2.8,0.1,2.8,0.1s0.2-1.6-1.5-3.4  c2.4,0.4,3.8-1.6,3.7-3c0-1.2,0-1.9,0.3-3.1c-1.6,0-2.6,1.5-3.3,1.4c-0.8-0.1-1.4-1-0.1-2c1.4-1,1.4-2.5,1.1-4.4  c-0.4-1.9-1.6-4.1-4.9-6.6c-0.4,1.2-2,3.9-4.7,4.9c-2.8,1.1-1.6,3.8-0.6,4.4c1,0.7,1,1.5,0.3,2c-0.6,0.6-1.2,0.5-1.7-1  c-0.5-1.4-1.5-1.7-2.6-1.8c-1.2,0-2-0.6-2-0.6s-0.3,2.4-0.1,4.6C275.3,21.3,277.4,20.8,278.5,20.5"></path>
<path class="st0" d="M288.4,29.9c-2.6,0.3-2.5,2-2.7,2.5c-0.2,0.4-0.7,1.2-1.6,1.1c-0.9-0.2-0.9-1.2-0.3-2c0.6-1-0.4-3.7-0.6-3.8  c-1.2,1.6-2.3,2-3.4,2.4c-1.2,0.4-1.5,1.7-1.4,2.5c0.3,0.7,0.7,1.1,1.6,1.4c0.9,0.3,1,1.2,0.7,1.7c-0.4,0.5-1.5,1-2,0.1  c-0.5-1-1.2-2.2-1.2-2.2s0.2,1.5-1.1,2.4c-1.2,1-0.9,3.9,1.2,4.6c2.1,0.7,2.5,0.5,2.5,0.5s-2.3,2.9,1.1,4.3c1.5,0.4,3.1,0.3,3.1,0.3  s0.1-2-0.4-3c-0.5-0.9,1.2-1.1,1.8-0.8c0.6,0.2-0.2,1.1,0.4,2.2c0.6,1.1,2.7,0.3,4.3-1.2c-0.7-0.9-0.4-1-0.8-1.9  c-0.4-0.9-0.8-1-2.5-0.9c-1.7,0.1-1.3-2.4,0.2-2.2c1.4,0.2,2.2,1.6,3.5,1.2c1.4-0.4,2.6-1.9,2.6-3.8c0-1.9,1.6-3.2,1.6-3.2  C295.2,31.9,292.1,29.3,288.4,29.9"></path>
<path class="st0" d="M293.7,39.9c0,0-0.2,1.1-1,1.8c-2.3,1.8-0.4,4.2-0.4,4.2s-2.2,0.4-3.2,0.6c0.4,1.9,1.4,5.4,5.4,2.5  c1.5-1.2,1.9-1,3.5-2.2c1.7-1.1,2-1.5,2.6-3.5c0.6-1.7,0.2-4.7,0.2-4.7s-0.1,0.7-1.5,0.7c-1.5-0.1-3.7,0.1-4.6,3  C294.7,41.3,293.7,39.9,293.7,39.9"></path>
<path class="st0" d="M303.3,40.6c0.1,2.2,3,1.5,3.3,1.1c1.5-1.2,1.5,0.6,1.5,0.6s-2.1,0.9-2.1,3c1.8-0.1,2.7,0.2,4.3-0.5  c2.7-2.1,2.4-3.8,2.7-2.8c0.3,1.1,1.9,3.2,3.2,1.9c-1-1.2-1.4-2.7-1-4c0.1-0.4-0.7-1-1.1-1.3c-2.5-1.7-1-6.6-3.9-7.8  c-1.2-0.5-1.9-1.2-2.9-2.3c-2.7,2.8-4.3,6.8-1,9.7c-1.8-0.6-3.6-1-3.6-1S303.2,38.4,303.3,40.6"></path>
<path class="st0" d="M310.4,25.8c-1.1,1.1-1.5,1.5-1.5,1.5s0.5,0.4,1.4,1.1c0.9,0.7,1.9,1.2,2.4,1.4c0.8,0.4,3.2-0.1,3.5-1.9  c0.1-0.8,1.1-1,1.1-1c1.2-0.1,2-1.2,1.4-1.5c-0.7-0.4-1.3-1.1-1.3-2.2c0-1.9,0-4-0.3-4.9c-0.7,0.4-2,0.3-2.5,1.1  c-0.4,0.9-0.5,2.4-0.8,1.4c-0.3-1.1-2.4-3.9-6.5-1.4c0,0,1.1,1.5,0.9,3.4C308.1,24.5,309,26.1,310.4,25.8"></path>
<path class="st0" d="M322.9,24.4c0.8,0,2.4,0,2.4,0s-1,2.2-0.3,3.3c0.6,1,0.9,1.5,2.9,1.8c1.3-0.7,1.9-1.4,2.2-1.8  c0.7-0.7,1.4-1.1,1.9-1.2c-0.8-1.2-2.2-2.6-2.2-2.6s1.7-0.6,2.3-1.5c0,0,0.4-0.9,0.3-2.7c-0.2-1.8,0.8-2.8,1.1-3.1  c-2.2-1.8-5.1-1.8-6.1,0.4c-0.5,1.5-1.8,1.4-1.9,0.5c0-1,0.5-3.5,0.5-3.5s-1.2,0.7-2.3,1.1c-1.1,0.4-2.9,1.7-1.6,4.1  c-1.4-0.9-2.7-0.5-2.7-0.5s0.1,1.8,0.1,3C319.5,22.8,320.9,24.4,322.9,24.4"></path>
<path class="st0" d="M317.8,30.9c0,0-1.2,0.8-2.1,1.8c-0.9,1.1-0.9,5.3,2.2,5.3c0.7,0,2,0.2,2,0.2s-2.1,1.3-2.4,2.9  c-0.2,2.1,2.3,4.2,2.8,5.4c1.2-1.1,1.8-2.5,1.1-3.9c-0.2-0.8,0.8-1.5,1.1-1.6c0.3,0,1.3,0.5,1.2,1.4c-0.3,0.9-0.1,3,1.6,2.8  c1,0,2.2-1.6,3.3-1.7c-0.4-1.1-1.3-1.9-2.7-2.2c-0.7-0.1-0.9-2.4,0.8-1.7c1,0.5,4,1.6,5.2-0.4c1.2-1.9,2.1-4.7,2.1-5.3  c-1.7,0.2-4.6-0.8-5.6-2.1c-1.2-1.3-2.3-0.4-3.1,1.1c-0.7,1.5-1.3,1.6-2,1.3c-0.8-0.2,0.1-1.1,0.6-2c1-1.5-0.7-3.4-0.7-3.4l-0.4-1.7  c0,0-1.4,0.6-2.9,1.8c-0.4,0.7,0,3.1,0.5,3.8c0.5,0.8-0.9,1.7-1.5,1.1C318.2,33.2,317.8,30.9,317.8,30.9"></path>
<path class="st0" d="M333.6,24c-0.1,0.6-1.1,2.7,1.6,3.1c2.9,0.2,3.4-1.8,4.4-1.7c1.9,0.2,0,2.9,3.6,1.6c0.4-0.9-0.2-2-0.2-2  s2.6-0.8,2.4-3.9c-1.3,0.5-2.3-0.1-2.3-0.1s2.5-0.9-0.5-5.8c0,0-0.8,1.3-2.4,1.4c-1.6,0-2.9,0.7-2.4,1.9c0.5,1.2,0.5,1.8-0.3,1.3  c-0.9-0.6-2.7-0.8-2.7-0.8s-1.3,3.3,1.1,4.1C337,23.4,335.1,25.4,333.6,24"></path>
<path class="st0" d="M343.6,36.6c3.2-1.4,1.6-5.8,0.6-7.8c-0.7,1.1-3.1,0.5-4.3,0.2c-1.2-0.2-3.9-0.9-4.8,2.1  c-1.3-2.3-1.9-2.8-1.9-2.8s-2.3,1.6-2.9,2.8c0,0,1.9,1.9,5.4,1.6c-0.3,2.1-1.3,4.9-1.3,4.9s-0.8,2.8-3,4.1c-0.4,0.9,1.2,1.4,2,2.4  c1.3,1.9,4.2,1.7,5.3,0.8c1.2-0.9-0.4-1.8-0.8-2.3c-0.3-0.5,0.2-1.6,0.6-1.6c0.4-0.1,1,0.3,1.2,0.8c0.8,2.4,2.4,3.2,5.2-2.8  c-1-0.4-2.1-1.1-3.3-0.6C341.7,36.9,342.7,37,343.6,36.6"></path>
<path class="st0" d="M349.4,50.3c0.8,0.5,3.5,0.3,4.6-0.3c-0.7-2.3-2-5.5-4.3-4.8c-1.4,0.2-1.5,1.3-2,2.2c-0.3,0.3-0.7,0.6-1.2,0  c-0.3-0.3-0.3-1.3,0.1-1.7c2.1-2.2,0.9-3.4,0.5-4.6c0,0-3.7,2.4-5.1,5c-0.1,0.5-0.2,0.7-0.2,0.7s-0.9,0.2-2.6,0.1  c-2.2-0.2-5.8,1.8-4.5,7c0.9,0.1,1.8,0.1,2.9-0.6c1.1-0.8,1.7-0.2,1.9,0.3c0.2,0.5-0.2,1.3-1,1.4c-0.8,0.3-2.8,0.5-2.1,2.9  c0.3,0.9,1.1,1.4,1.8,2.1c0.5,0.7,0.7,1.2,0.7,1.2s0.4-0.9,1.4-1.7c1.1-0.9,1.6-1.9,1.2-3c-0.3-1.1,0.1-1.5,0.8-1.5  c0.7,0,1.7,0.8,1.2,1.7c-0.4,0.9-1.7,4,1.5,4.6c3.2,0.7,6.1,0.5,7,2.4c1.4-2.7,1.8-9.8-0.5-11.6c-0.9-0.6-1.2-0.2-2.7-0.2  c-1.7,0-1.8-1.1-1.6-1.7C347.5,49.8,348.5,49.8,349.4,50.3"></path>
<path class="st0" d="M360.1,50.7c0.7,0.5,0.6,1.1,0.9,1.9c0.3,0.9,1.3,2.2,2.7,1.2c1.4-1,2.8-1.4,3.8-0.9c-0.2-2.5-1.5-5.5-3.3-6  c-1.7-0.5-2.3,0.2-3.3,0.6c-1.1,0.4-1.7-1.3-0.2-1.6c0.8-0.2,2.7,0,3.3-1.5c-0.9,0-2.1-1-2.6-1.6c-0.5-0.7-2.3,0.4-3,1.6  c-0.9-1.8-1.3-1.8-1.3-1.8s-0.9-0.5-1.8,1.1c-1.1,2,0,3.4,0.5,5.1c0.9,1.7,0.8,2,0.8,2s-2.4,0.5-2.9,1.2c0.7,0.8,1.9,3,3,3.4  c1.8,0.7,2.1,0.9,2.1,0.9s1.1-1.8,0-3.4C358,51.1,359.4,50.2,360.1,50.7"></path>
<path class="st0" d="M348.2,35c-3.2-0.2-1.1,3.8,0.6,5c1.5,1.3,2.8,2.8,3.1,2.7c0,0,1.6-2.8,1.5-4.1c1.5,2.1,3.2,1.8,4.5,0.9  c1.2-0.9,2.3-0.9,2.3-0.9s-2.4-1.2-2.7-2.3c-0.3-1.1,0.1-0.7,1.6-0.1c1.5,0.6,5.9-0.9,6.7-6.5c-2,0.5-3.6-0.8-4.8-2.1  c-1.2-1.3-3.7-0.4-4.5,1.6c-0.7,1.2-1.4,0.6-2,0.3c-0.5-0.4,0.2-1.3,1.1-2.4c0.7-1.1-1.5-2.6-1.7-3.9c-2.6,0.9-3.8,1.6-3.6,3.3  c0.1,1.6,0.8,2,1.3,2.5c0.4,0.6-0.7,1.9-1.3,1.1c-0.7-0.8-0.6-0.9-1.1-1.9c-0.4-0.9-1.1-1.5-1.1-1.5s-3.5,3.1,0.1,7.5  C349.9,35,348.2,35,348.2,35"></path>
<path class="st0" d="M312.5,62.1c0.1-0.2,0.7-0.6,1.1,0.7c0.4,1.2,1.9,2.2,3.8,2.8c0-0.9,0.4-1.5,0.8-2.5c0.4-1,0.7-1.6-0.3-2.9  c-1-1.4-2.6-0.4-3.4-0.2c-1.8,0.4-1.6-1.8,0-2c1.9-0.1,1-2,2.2-3.5c-6-2.8-6.6,1.5-6.6,1.5s-1.7-2.4-3.9-2.2  c-2.2,0.2-3.8,3.3-3.8,3.3s1.3,0.1,2.5,0.4c1.5,0.2,1,1.4,1,1.7c-0.1,0.3-0.4,0.9-1.2,0.2c-0.8-0.7-1-1-2.3-0.6  c-1.2,0.3-2.4,2.6-1.1,5c0.8-0.5,3-0.7,3.4-1.4c0.5-0.8,1.4-1.7,2.1-0.6c0.7,1.1-0.2,1.4-1.5,2.7c-1.3,1.3-1,3.5,0.4,4.4  c1.4,0.9,3.2,2.1,2.9,4c8.7-3.9,4.7-7.9,3.7-8.7C311.3,63.2,312.3,62.3,312.5,62.1"></path>
<path class="st0" d="M230.1,51.7c1.3,0.4,2.3-0.5,2.4-1.5c0.2-0.9,1.3-0.6,1.2-0.1c-0.3,1-0.8,2.2-0.5,3.4c0.3-0.3,0.1-0.4,1.5-0.8  c1.9-0.7,0.7-2.9,0.7-3.7c0.2-1.6,1.2-0.9,1.7-0.2c0.5,0.8,1.1,1,2.3,1.2c0-0.1-0.7-1.6-0.8-2.2c-0.2-1.2,0.2-2.4-0.4-2.8  c-1.3-1-2.9,0-2.4-0.4c1.4-3.4-1.6-4.9-1.6-4.9c-0.2,0.4-0.4,1.3-0.4,2.2c0.2,0.9-1.3,1.2-1.3,0.5c0-0.7-0.2-1.6-1.2-1.6  c-1,0-1.1,0.8-2.5,1.6c0,0,1,1.7,2.1,1.7c1.1,0,1.2,0.1,1.1,0.8c-0.1,1.7-2.1,0.7-2.9,0.6c-0.9-0.1-4.1,0.8-3.5,4.9  C227.2,49.8,228.9,51.2,230.1,51.7"></path>
<path class="st0" d="M277.1,52.3c0-1.9-1.7-3.4-3.6-3.4c-0.1,0-0.1,0.1-0.2,0.1c-0.2-1.6-3.9-1.6-3.9-1.6c-1.2-3.9-5.9-2.7-6.6-1.3  c-0.5-0.2-1.8-0.4-2.6-0.1c-3.6,1-4.5,4.1-3.5,6.5v0.1c0.3,0.7,0.7,1.3,1.2,1.8c0.1,0.1,0.1,0.2,0.2,0.2c0.1,0.1,0.1,0.1,0.1,0.1  c0.7,0.6,1.6,1,2.6,1.1c0.1,0,0.1,0,0.2,0c0.1,0,0.2,0,0.3,0c0,0,0.1,0,0.1,0h0c0.4,0,0.9,0,1.3-0.1c0.2-0.1,0.5-0.1,0.8-0.3  c0,0,0.1,0,0.1-0.1c-0.1,0.1-0.5,1.2-0.7,1.2c-0.7,0.8-1.6,1.1-2.6,1.1h-0.1c-0.2,0-0.4,0-0.6,0c0,0-0.1,0-0.2-0.1h0.1  c-0.2,0-0.6-0.1-0.9-0.3c0,0-0.1,0.1-0.1,0.3c-0.3,0.7-0.3,0.5-0.3,1.3c0,0.6,0.2,1.2,0.3,1.7c0.5,1.2,1.2,1.7,1.6,2h0c0,0,0,0,0,0  c-0.1,0.1-0.1,0.1-0.2,0.2c-0.3,0.6-0.5,1.2-0.5,1.9c0,2.2,1.9,3.9,4.1,3.9c0.4,0,0.7,0,0.9-0.1c0.5-0.1,1-0.3,1.5-0.6  c0.3-0.3,0.6-0.5,0.9-0.9c0,0.1-0.2,3-3.3,3.2c-0.2,0.4-0.5,0.5-0.5,1c0,1.8,1.6,3.3,3.5,3.3c2,0,3.5-1.5,3.5-3.3  c0-0.4-0.1-0.8-0.2-1.2c2-0.4,3.5-2.2,3.5-4.3c0-0.5,0-0.5-0.2-1c-0.4,0.1-1,0.1-1.4,0.1c-1.1,0-1.8-0.8-2.3-1.7  c0.1,0.1,0.4,0.1,0.5,0.1c0.5,0.1,1.2,0.2,2,0.1c0.1,0,0.4-0.1,0.6-0.1c0.8-0.2,1.7-0.8,2.4-1.7c0.6-0.7,0.9-1.6,0.9-2.7  c0-1.2-0.5-2.4-1.4-3.2C275.8,55.3,277.1,53.9,277.1,52.3"></path>
<path class="st0" d="M338.1,64.3c-0.1-0.6-0.5-1-0.5-1s-0.1,0-0.4,0.1c-0.3,0.1-0.6,0.3-0.6,0.3s0.1-0.8-1.3-1.9  c-3.5-2.6-1.6-5.6-1.6-5.6l-2.1-0.2l-0.3-3.7c0,0-0.5-3,2.4-4.9c-0.7-0.6-2.5-1.2-3.8,1c-0.6-0.7-1.5-0.3-1.8,0.3  c0,0-0.3-0.6-1.2-1.2c-0.9-0.5-2.4-0.9-3.9-0.1c-2.4,1.3-1.8,4-1.7,4.3c0,0,0.6,1.2-0.1,1.7c0,0-3,1-2.2,4.2  c0.7,3.4,4.6,4.2,6.9,2.1c-0.4,1.6-1.2,3.3-3,2.8c0,0-1.9,1.8,0.6,4.1c0.9,0.9,2.6,1.2,4.1,0.4c-0.1,2.8-2.5,2-2.5,2s-0.3,2,2.6,1.9  c-0.9,2.1,0.6,4.1,2.8,4.2c2.2,0.1,3.2-1.9,2.8-3.5c-1.3,0.2-2.2-1.1-1.9-2.7c0.1,0.5,1.2,1.9,2.9,1.3c1.2-0.6,1.3-2.2,0.8-2.9  C337.6,67.5,338.2,65.6,338.1,64.3"></path>
<path class="st0" d="M307.2,111.4l-0.2-0.4C307.1,111.2,307.2,111.4,307.2,111.4L307.2,111.4z"></path>
<path class="st0" d="M338.4,142.1c-3-2.5-10-10.1-19.9-5.8c-10.8-3-14.2-10.5-14.4-17.5l-0.1,0c-0.3-2.8-0.9-5.7-2.3-8.7  c-3.5-7.3-10.1-17-9.3-24.5c1.5,5.6,7.7,12.9,10.2,15.8c2.2,2.6,4,7.7,4.5,9.3l-0.6-1.4l0,0.1l0.7,1.6c0,0,0-0.1-0.1-0.2l0.2,0.5  l0.3,0.6h84c0,0-5.9-11.9-12.5-12.9c-3,0.9-11.9-5.9-12.8-6.2c-2.3,1.1-4.4,4.7-9.3,4.7c-1.5,0-7.8-5.5-9.8-6.4  c-0.8-0.4-6.9-2.9-8.5-3.5c-5.6,1.7-15.4,10.6-17.4,10.4c-1.7,0-2.4-0.2-4.2-2.3c-2.2-2.9-5.1-0.3-5.9-0.2c-1.4,0.2-2.8,0.7-4-1.1  c-1.3-2.3-2.8-3.8-6.7-7.1c-7.8-6.5-7.7-10.9-8.4-13.8c2.3,5.1,6,6.4,8.4,7.8c6,3.6,6.7,6,7.4,6.5c-1.5-7.4-2.8-12.4-9.6-15.2  c-9.4-3.9-10.9-12.8-12-16.9c0.7,2.3,3.5,6.5,8.2,10.2c1.9,1.4,3.9,2.5,5.1,2.7c0.6,0.2-1.9-4.6-2.6-6.8c-1.7-5.7,2.7-10.2,7.7-11.6  c4.1-1.2,10.8-1,14.7,0.8l-0.1-1.9c-1.8-0.9-4-1.4-6.7-1.8c-5-0.9-11.1-0.1-17.4,3.8c-2,1.4-3.1,3-5.8,0.9  c-9.4-8.5-15.5-7.2-17.3-7.2c0.7,0.4,1.6,1.3,1.6,1.3l2.6,0.9c3.9,2.2,5.2,6.6,6.4,9.9c1,3.5,1.6,5.7,2.8,8.1  c1.4,3.2,2.6,5.1,3.5,8.9c2.1,8.8,0.1,15.7-1,18c-7.6,8.5-12.3-6.4-19.7-5.8c-2.3,0.6-9.8,9.5-12.1,9.6c-4.6,0.2-7.7-4-10.5-5  c-3.2-0.5-4.4,0.5-6.2,1.5c-4.4,2.8-6.8,7.2-11,7.2c-2.6-0.1-5.5-3.1-9.2-4c-8,3.2-14.9,16.5-14.9,16.5l86.1,0.1  c0,0-0.7-3.6-0.8-5.7c-0.2-2.6,1.4-5.5,1.4-5.5l0.6-1.7V99c0,0,0,0,0.1-0.1l-0.1,0.2c-0.5,3.2,0.7,5.1,1.6,7.3  c0.7,2.1,2.4,5.3,3.1,8.3c0.4,1.5,0.7,3.5,0.9,5.6c-0.7,6.5-4.3,13.2-14.3,16c-9.9-4.4-16.8,3.2-19.9,5.8c6.1-3.3,13.6-6.5,17.1-3.2  c-0.3,2.9-5.8,5.7-10.4,7.2c7.7,0.4,12.1-3.4,13.7-6.6c12.1-2,16.6-13,17.1-14.8l0.2-0.8l0.2,0.8c0.5,1.9,5,12.8,17.1,14.8  c1.6,3.2,6,7,13.7,6.6c-4.6-1.5-10.1-4.3-10.4-7.2C324.8,135.6,332.3,138.7,338.4,142.1"></path>
<path class="st0" d="M292.1,124.5c0,0,0.5-2.7-0.1-4.6c-4.4,0-9.6-2-20,3c-5.7-5.6-13.6-5-19.1-2.8c5-0.8,12.6,1.1,17.1,5.3  c-2.2-0.6-5.8-1-10.1,0.9c-2.7-2.3-9.9-4.7-18.8-2c7.4-0.6,14.1,1,16.6,3.6c-2.2,2.6-6.9,3.8-12,3.8c3.3,1.4,9.9,2.1,13.3-0.8  c3.3-2.8,9.7-4.2,12.6-2.4C278.1,120.8,292.1,124.5,292.1,124.5"></path>
<path class="st0" d="M341,126.3c-4.3-1.9-8-1.5-10.1-0.9c4.4-4.2,12.1-6.1,17.1-5.3c-5.5-2.2-13.4-2.7-19.1,2.8  c-10.4-5.1-15.6-3-20-3c-0.6,1.9-0.1,4.6-0.1,4.6s14-3.7,20.6,4.2c2.8-1.8,9.2-0.4,12.6,2.4c3.4,2.9,10,2.2,13.3,0.8  c-5.2,0-9.9-1.2-12-3.8c2.5-2.6,9.2-4.2,16.6-3.6C351,121.6,343.7,124.1,341,126.3"></path>
<g>
	<path class="st1" d="M165.4,313.4c7.1,0,11.9,4.5,11.9,11.4s-4.7,11.4-11.9,11.4H156v-22.8H165.4z M160.5,317.7V332h4.8   c4.8,0,7.1-3,7.1-7.2c0-4.2-2.3-7.2-7.1-7.2H160.5z"></path>
	<path class="st1" d="M208.4,336.2h-17.1v-22.8h16.9v4.2h-12.4v5.1h11.8v4.2h-11.8v5.3h12.5V336.2z"></path>
	<path class="st1" d="M238.5,319.2c-1.8-1.1-4-1.9-6.5-1.9c-2.6,0-4.4,1-4.4,2.7c0,1.7,2,2.2,4.7,2.6l1.3,0.2   c4.1,0.7,7.3,2.4,7.3,6.4c0,5-4.4,7.4-9.3,7.4c-3.5,0-7.2-1-9.6-3l2.4-3.7c1.6,1.3,4.3,2.5,7.3,2.5c2.5,0,4.5-1,4.5-2.8   c0-1.6-1.7-2.2-4.8-2.7l-1.5-0.2c-4-0.6-7-2.4-7-6.5c0-4.8,4.2-7.2,9.1-7.2c3.2,0,5.9,0.7,8.7,2.4L238.5,319.2z"></path>
	<path class="st1" d="M264.4,313.4c7.1,0,11.9,4.5,11.9,11.4s-4.7,11.4-11.9,11.4H255v-22.8H264.4z M259.6,317.7V332h4.8   c4.8,0,7.1-3,7.1-7.2c0-4.2-2.3-7.2-7.1-7.2H259.6z"></path>
	<path class="st1" d="M307.4,336.2h-17.1v-22.8h16.9v4.2h-12.4v5.1h11.8v4.2h-11.8v5.3h12.5V336.2z"></path>
	<path class="st1" d="M348.2,336.2h-4.4v-17l-5.5,2.2V317l9.9-4V336.2z"></path>
	<path class="st1" d="M379.6,319.6c0,2.6-1.5,4.3-3.5,5.2c2.3,0.9,4,2.5,4,5.3c0,4.2-4,6.6-8.9,6.6c-4.9,0-8.9-2.5-8.9-6.6   c0-2.8,1.8-4.4,4-5.3c-2-0.9-3.5-2.5-3.5-5.2c0-4.1,3.8-6.6,8.4-6.6C375.8,313,379.6,315.4,379.6,319.6z M367,329.6   c0,2,1.9,3.1,4.2,3.1c2.3,0,4.2-1.1,4.2-3.1c0-2-1.9-3.1-4.2-3.1C368.9,326.5,367,327.6,367,329.6z M367.5,319.9c0,2,1.6,3,3.7,3   c2,0,3.7-1,3.7-3c0-1.9-1.6-2.9-3.7-2.9C369.2,317,367.5,318,367.5,319.9z"></path>
	<path class="st1" d="M401.5,328.3c-0.3,0-0.6,0.1-1,0.1c-4.6,0-7.9-3.3-7.9-7.6c0-4.5,3.7-7.8,8.6-7.8c4.9,0,8.6,3.3,8.6,7.7   c0,2.1-0.8,4-2.2,6.1l-6.3,9.5h-5.3L401.5,328.3z M405.2,320.7c0-2.2-1.7-3.8-4-3.8c-2.3,0-4,1.5-4,3.8c0,2.2,1.7,3.8,4,3.8   C403.5,324.5,405.2,322.9,405.2,320.7z"></path>
	<path class="st1" d="M436.8,317.5h-9.2l-0.1,4.6h2.6c5.3,0,8,3,8,6.9c0,4.9-3.7,7.7-8.3,7.7c-3.4,0-6.2-1.3-8.1-3.4l2.5-3.1   c1.2,1.4,3.5,2.4,5.6,2.4c2.5,0,3.8-1.5,3.8-3.3c0-1.7-1.1-3.2-4.6-3.2h-5.4l0.2-12.6h13.1V317.5z"></path>
</g>
<path class="st1" d="M108.8,224.6c0-29.4,21.1-49.5,47.7-49.5c27.6,0,46.7,19,46.7,44.2c0,29.4-21,49.5-47.7,49.5  C128.2,268.8,108.8,249.6,108.8,224.6 M188.1,228.8c0-27.7-12.3-50.2-36-50.2c-19.1,0-28.1,15.9-28.1,36.6c0,27.6,12.4,50,36.1,50  C179.2,265.2,188.1,249.4,188.1,228.8"></path>
<path class="st1" d="M298.5,266.5v0.6h-19.4L254.4,231c-3.7-5.3-7.1-7.6-12.9-7.3h-1.2v34c0,2.8,2.3,5.2,9.5,8.9v0.6h-32.5v-0.6  c7-3.7,9.3-6.1,9.3-8.9v-71.3c0-2.8-2.3-5.2-9.3-8.9v-0.6h22.3c29.9-3.5,50.1,2.7,50.1,22c0,16.5-15.7,23.4-41.5,23.8  c15.4,2.8,20.2,6.4,26.5,14.8l8.9,12.2C289,257,292.4,261.9,298.5,266.5 M240.3,178.8v41.7h5.2c19.5,0,28.9-7.7,28.9-20.2  C274.4,179.2,256.7,176.8,240.3,178.8"></path>
<path class="st1" d="M380.6,203h-0.5c-9.4-15.8-14-23.2-24.4-23.4h-6.4v77.9c0,2.8,3.1,5.2,13,8.9v0.6h-39.9v-0.6  c9.9-3.7,13-6.1,13-8.9v-77.9h-6.4c-10.5,0.1-15.1,7.6-24.4,23.4h-0.5l1.2-26v-0.2h74.1v0.2L380.6,203z"></path>
<path class="st1" d="M392.2,224.6c0-29.4,21.1-49.5,47.7-49.5c27.6,0,46.7,19,46.7,44.2c0,29.4-21,49.5-47.7,49.5  C411.6,268.8,392.2,249.6,392.2,224.6 M471.4,228.8c0-27.7-12.3-50.2-36-50.2c-19.1,0-28.1,15.9-28.1,36.6c0,27.6,12.4,50,36.1,50  C462.5,265.2,471.4,249.4,471.4,228.8"></path>
<path class="st1" d="M68.7,176.8v0.6c8.8,5.2,11.3,6.7,11.6,16.4v52l-46.7-69H12.4v0.6c3.6,2.5,5.4,4.7,8,7.8v64.8  c0,9.8-2.7,11.3-10,16.4v0.6h26.4v-0.6c-8.8-5.2-11.3-6.7-11.6-16.4v-59.7c1,1.2,1.6,2.5,2.5,4l51.1,72.7h6.4v-73.3  c0-9.8,2.7-11.3,10-16.4v-0.6H68.7z"></path>
<path class="st1" d="M557.9,176.8v0.6c8.8,5.2,11.3,6.7,11.6,16.4v52l-46.7-69h-21.2v0.6c3.6,2.5,5.4,4.7,8,7.8v64.8  c0,9.8-2.7,11.3-10,16.4v0.6h26.4v-0.6c-8.8-5.2-11.3-6.7-11.6-16.4v-59.7c1,1.2,1.6,2.5,2.5,4l51.1,72.7h6.4v-73.3  c0-9.8,2.7-11.3,10-16.4v-0.6H557.9z"></path>
</svg>
