<?xml version="1.0" encoding="utf-8"?>
<!-- Generator: Adobe Illustrator 17.0.0, SVG Export Plug-In . SVG Version: 6.00 Build 0)  -->
<!DOCTYPE svg PUBLIC "-//W3C//DTD SVG 1.1//EN" "http://www.w3.org/Graphics/SVG/1.1/DTD/svg11.dtd">
<svg version="1.1" id="Layer_1" xmlns="http://www.w3.org/2000/svg" xmlns:xlink="http://www.w3.org/1999/xlink" x="0px" y="0px"
	 width="163px" height="79px" viewBox="36.5 14.5 163 79" enable-background="new 36.5 14.5 163 79" xml:space="preserve">
<g>
	<path fill="#FFFFFF" d="M81.199,79.373h-1.355l-3.312,6.457h1.245l0.71-1.419h4.073l0.71,1.419h1.244l-0.044-0.085L81.199,79.373z
		 M79.042,83.351l1.491-2.893l1.473,2.893H79.042z M92.57,83.343c0.448-0.091,0.805-0.286,1.069-0.581
		c0.307-0.337,0.455-0.787,0.455-1.336c0-0.623-0.182-1.127-0.559-1.497c-0.371-0.374-0.884-0.556-1.525-0.556h-4.812v6.457h1.111
		v-2.416h2.956l1.63,2.416h1.3l-0.06-0.087L92.57,83.343z M88.309,82.353v-1.921h3.456c0.817,0.011,1.186,0.322,1.192,0.994
		c-0.006,0.627-0.344,0.914-1.101,0.926H88.309z M100.18,83.414h2.838c-0.415,1.015-1.255,1.518-2.569,1.521
		c-0.856,0-1.54-0.22-2.051-0.654c-0.513-0.434-0.772-0.99-0.772-1.688c0-0.729,0.297-1.308,0.897-1.761
		c0.516-0.391,1.155-0.582,1.928-0.582c0.99,0,1.793,0.344,2.422,1.04l0.029,0.032l1.056-0.547l-0.045-0.053
		c-0.878-1.034-2.008-1.552-3.377-1.552c-1.132,0-2.069,0.288-2.813,0.871c-0.847,0.661-1.271,1.516-1.271,2.551
		c0,1.048,0.419,1.906,1.253,2.559c0.738,0.576,1.657,0.862,2.746,0.862c1.195,0,2.164-0.324,2.891-0.968
		c0.73-0.646,1.094-1.499,1.093-2.541v-0.154h-4.253L100.18,83.414L100.18,83.414z M108.715,83.01h3.604v-1.062h-3.604v-1.516h5.187
		v-1.059h-6.319v6.457h6.555v-1.059h-5.423V83.01z M123.059,84.486l-4.619-5.112h-1.347v6.457h1.133v-5.11l4.616,5.111h1.35v-6.457
		h-1.133C123.059,79.374,123.059,84.486,123.059,84.486z M126.637,80.432h2.941v5.398h1.135v-5.398h2.941v-1.059h-7.017
		L126.637,80.432L126.637,80.432z M136.436,85.83h1.133v-6.457h-1.133V85.83z M147.179,84.486l-4.617-5.112h-1.348v6.457h1.133
		v-5.11l4.614,5.111h1.35v-6.457h-1.132L147.179,84.486L147.179,84.486z M158.785,85.745l-3.271-6.372h-1.353l-3.315,6.457h1.246
		l0.707-1.419h4.073l0.71,1.419h1.247L158.785,85.745z M153.353,83.351l1.491-2.893l1.476,2.893H153.353z"/>
	<path fill="#FFFFFF" d="M95.297,45.867h-1.706v2.812h1.79c0.211,0,0.418-0.037,0.613-0.116c0.18-0.066,0.314-0.149,0.405-0.258
		c0.293-0.328,0.442-0.683,0.442-1.051c0-0.403-0.143-0.741-0.427-1.001C96.131,45.996,95.756,45.867,95.297,45.867z M95.957,47.848
		c-0.141,0.148-0.318,0.22-0.545,0.22h-1.186v-1.589h1.111c0.26,0,0.455,0.076,0.607,0.223c0.149,0.145,0.224,0.334,0.224,0.587
		C96.168,47.522,96.1,47.704,95.957,47.848z M100.227,47.523h1.484v-0.609h-1.484v-0.436h2.134v-0.612h-2.768v2.812h2.862v-0.61
		h-2.227L100.227,47.523L100.227,47.523z M107.718,47.142c-0.195-0.123-0.495-0.198-0.914-0.246
		c-0.288-0.028-0.576-0.057-0.865-0.081c-0.198-0.04-0.252-0.101-0.252-0.173c0.003-0.072,0.038-0.122,0.165-0.171
		c0.128-0.048,0.331-0.075,0.607-0.075c0.375,0,0.723,0.087,1.04,0.265l0.048,0.026l0.038-0.039l0.359-0.397l-0.066-0.048
		c-0.367-0.273-0.847-0.405-1.429-0.402c-0.433,0-0.78,0.075-1.034,0.232c-0.252,0.156-0.389,0.387-0.389,0.664
		c0,0.227,0.085,0.418,0.252,0.537c0.163,0.122,0.405,0.193,0.726,0.229c0.081,0.009,0.299,0.02,0.651,0.039
		c0.221,0.009,0.383,0.031,0.478,0.06c0.179,0.057,0.238,0.129,0.238,0.233c0,0.095-0.051,0.168-0.193,0.239
		c-0.143,0.072-0.355,0.109-0.632,0.109c-0.495,0-0.909-0.125-1.242-0.374l-0.056-0.042l-0.349,0.481l0.053,0.045
		c0.405,0.324,0.94,0.482,1.602,0.482c0.468,0,0.833-0.079,1.093-0.248c0.26-0.167,0.397-0.415,0.396-0.724
		C108.043,47.5,107.935,47.277,107.718,47.142z M112.444,45.867h-1.708v2.812h1.79c0.211,0,0.414-0.037,0.612-0.116
		c0.182-0.066,0.316-0.149,0.406-0.258c0.291-0.328,0.442-0.683,0.442-1.051c0-0.403-0.143-0.741-0.427-1.001
		C113.277,45.996,112.902,45.867,112.444,45.867z M113.103,47.848c-0.143,0.148-0.318,0.22-0.544,0.22h-1.188v-1.589h1.11
		c0.26,0,0.458,0.076,0.609,0.223c0.148,0.145,0.224,0.334,0.224,0.587C113.314,47.522,113.244,47.704,113.103,47.848z
		 M117.371,47.523h1.487v-0.609h-1.487v-0.436h2.136v-0.612h-2.769v2.812h2.863v-0.61h-2.23V47.523z M125.728,45.764
		c-0.119,0.107-0.249,0.186-0.399,0.24l-0.047,0.014v0.56l0.421-0.193v2.293h0.582v-2.933h-0.541L125.728,45.764z M131.201,47.133
		c0.226-0.125,0.35-0.322,0.349-0.572c0.002-0.264-0.125-0.484-0.358-0.629c-0.233-0.151-0.548-0.221-0.95-0.221
		c-0.399,0-0.71,0.07-0.942,0.221c-0.232,0.145-0.353,0.364-0.35,0.629c-0.003,0.249,0.119,0.447,0.346,0.572
		c-0.14,0.059-0.252,0.137-0.343,0.23c-0.125,0.131-0.186,0.289-0.186,0.461c-0.003,0.28,0.138,0.513,0.402,0.664
		c0.258,0.156,0.621,0.23,1.083,0.23c0.458,0,0.822-0.075,1.08-0.23c0.258-0.151,0.402-0.384,0.399-0.664
		c0.003-0.171-0.063-0.328-0.186-0.461C131.453,47.271,131.341,47.193,131.201,47.133z M130.251,46.268
		c0.525,0.006,0.717,0.125,0.72,0.302c-0.001,0.097-0.047,0.167-0.165,0.23c-0.122,0.066-0.308,0.101-0.554,0.101
		c-0.251,0-0.436-0.035-0.557-0.101c-0.122-0.064-0.162-0.134-0.168-0.23C129.529,46.393,129.722,46.274,130.251,46.268z
		 M130.251,48.157c-0.64-0.003-0.886-0.151-0.886-0.369c0-0.224,0.246-0.368,0.886-0.371c0.635,0.003,0.881,0.146,0.883,0.371
		C131.132,48.006,130.886,48.154,130.251,48.157z M136.436,47.133c0.226-0.125,0.353-0.322,0.35-0.572
		c0.003-0.264-0.125-0.484-0.358-0.629c-0.23-0.151-0.548-0.221-0.95-0.221c-0.397,0-0.713,0.07-0.943,0.221
		c-0.23,0.145-0.353,0.364-0.352,0.629c-0.002,0.249,0.122,0.447,0.347,0.572c-0.137,0.059-0.254,0.137-0.343,0.23
		c-0.122,0.131-0.186,0.289-0.186,0.461c-0.002,0.28,0.142,0.513,0.4,0.664c0.263,0.156,0.624,0.23,1.085,0.23
		c0.458,0,0.82-0.075,1.082-0.23c0.26-0.151,0.4-0.384,0.399-0.664c0.002-0.171-0.066-0.328-0.186-0.461
		C136.693,47.271,136.578,47.193,136.436,47.133z M135.487,46.268c0.526,0.006,0.717,0.125,0.717,0.302
		c0,0.097-0.047,0.167-0.165,0.23c-0.119,0.066-0.305,0.101-0.553,0.101c-0.249,0-0.436-0.035-0.556-0.101
		c-0.122-0.064-0.165-0.134-0.167-0.23C134.766,46.393,134.956,46.274,135.487,46.268z M135.487,48.157
		c-0.638-0.003-0.886-0.151-0.886-0.369c0-0.224,0.248-0.368,0.886-0.371c0.636,0.003,0.883,0.146,0.883,0.371
		C136.369,48.006,136.123,48.154,135.487,48.157z M141.534,47.126c0.204-0.14,0.318-0.341,0.315-0.59
		c0.003-0.254-0.117-0.465-0.343-0.613c-0.224-0.146-0.526-0.218-0.905-0.218c-0.453,0-0.889,0.157-1.303,0.461l-0.063,0.045
		l0.346,0.393l0.053-0.034c0.297-0.204,0.62-0.305,0.975-0.305c0.479,0.005,0.651,0.117,0.651,0.294
		c0,0.217-0.182,0.336-0.673,0.344h-0.472v0.516h0.276c0.349,0,0.604,0.034,0.766,0.098c0.159,0.067,0.215,0.143,0.218,0.249
		c0,0.251-0.227,0.393-0.819,0.4c-0.412,0-0.763-0.146-1.066-0.44l-0.053-0.05l-0.384,0.408l0.044,0.048
		c0.183,0.208,0.396,0.359,0.626,0.455c0.224,0.09,0.489,0.135,0.787,0.135c0.455,0,0.814-0.075,1.079-0.237
		c0.255-0.148,0.394-0.38,0.39-0.661C141.983,47.511,141.824,47.266,141.534,47.126z"/>
	<g>
		<g>
			<path fill="#FFFFFF" d="M48.642,58.377h-4.533c-0.49,0-0.856,0.053-1.107,0.162c-0.246,0.106-0.481,0.315-0.699,0.635h-0.33
				v-3.671h0.33c0.126,0.151,0.258,0.251,0.4,0.296c0.138,0.045,0.337,0.067,0.609,0.067h13.804c0.279,0,0.484-0.026,0.624-0.079
				c0.137-0.053,0.255-0.149,0.347-0.283h0.328v3.671h-0.328c-0.177-0.313-0.394-0.522-0.649-0.63
				c-0.258-0.111-0.645-0.167-1.158-0.167h-4.52V69.16c0,0.615,0.106,1.065,0.31,1.35c0.207,0.291,0.567,0.482,1.082,0.573v0.293
				h-5.912v-0.293c0.557-0.131,0.931-0.324,1.12-0.585c0.186-0.264,0.283-0.707,0.283-1.337V58.377z"/>
			<path fill="#FFFFFF" d="M63.014,55.865h9.184c0.865,0,1.585,0.06,2.158,0.182c0.573,0.125,1.101,0.325,1.579,0.613
				c0.716,0.442,1.27,0.993,1.66,1.66c0.393,0.668,0.588,1.401,0.588,2.204c0,0.733-0.16,1.41-0.479,2.03
				c-0.321,0.616-0.775,1.138-1.37,1.56c-0.595,0.427-1.29,0.724-2.089,0.9l3.397,4.329c0.022,0.02,0.053,0.05,0.087,0.09
				c0.034,0.036,0.081,0.089,0.138,0.159l0.506,0.59c0.455,0.507,0.997,0.809,1.627,0.9v0.293h-4.678l-4.499-6.054h-3.286v3.839
				c0,0.615,0.101,1.065,0.308,1.35c0.207,0.291,0.565,0.482,1.079,0.573v0.293h-5.909v-0.293c0.371-0.085,0.654-0.196,0.853-0.336
				c0.196-0.14,0.339-0.336,0.424-0.585c0.084-0.251,0.128-0.585,0.128-1.001V58.081c0-0.582-0.109-1.023-0.324-1.317
				c-0.214-0.296-0.575-0.494-1.08-0.603C63.014,56.161,63.014,55.865,63.014,55.865z M67.489,58.377v4.432h4.298
				c0.976,0,1.731-0.193,2.27-0.579c0.542-0.386,0.809-0.939,0.809-1.66c0-0.875-0.433-1.519-1.299-1.921
				c-0.399-0.18-0.984-0.273-1.768-0.273C71.799,58.377,67.489,58.377,67.489,58.377z"/>
			<path fill="#FFFFFF" d="M105.223,55.865h8.59c1.264,0,2.344,0.179,3.247,0.534c0.865,0.349,1.551,0.897,2.048,1.648
				c0.501,0.749,0.751,1.602,0.751,2.555c0,0.632-0.113,1.219-0.346,1.767c-0.232,0.551-0.564,1.032-0.998,1.453
				c-0.433,0.415-0.939,0.739-1.521,0.975c-0.766,0.305-1.837,0.456-3.207,0.456h-4.044v3.907c0,0.615,0.103,1.065,0.308,1.35
				c0.207,0.291,0.565,0.482,1.08,0.573v0.293h-5.91v-0.293c0.369-0.085,0.657-0.196,0.853-0.336
				c0.196-0.14,0.336-0.336,0.424-0.585c0.084-0.251,0.123-0.585,0.123-1.001v-11.08c0-0.582-0.101-1.015-0.308-1.295
				c-0.205-0.28-0.569-0.489-1.091-0.624L105.223,55.865L105.223,55.865z M109.743,58.377v4.365h3.932
				c0.94,0,1.661-0.192,2.158-0.576c0.498-0.38,0.744-0.931,0.744-1.65c0-0.291-0.057-0.57-0.168-0.843
				c-0.116-0.276-0.274-0.503-0.47-0.688s-0.439-0.322-0.726-0.415c-0.377-0.128-0.897-0.193-1.552-0.193H109.743z"/>
			<path fill="#FFFFFF" d="M124.065,71.375v-0.293c0.369-0.085,0.654-0.196,0.852-0.336c0.198-0.14,0.338-0.336,0.422-0.585
				c0.084-0.251,0.128-0.585,0.128-1.001V58.081c0-0.582-0.103-1.015-0.308-1.295c-0.208-0.28-0.57-0.489-1.093-0.624v-0.296h5.906
				v0.296c-0.503,0.098-0.859,0.294-1.071,0.579c-0.211,0.289-0.318,0.736-0.318,1.34V69.16c0,0.615,0.103,1.065,0.311,1.35
				c0.204,0.291,0.565,0.482,1.077,0.573v0.293L124.065,71.375L124.065,71.375z"/>
			<path fill="#FFFFFF" d="M150.023,55.865v4.136h-0.328c-0.387-0.415-0.865-0.775-1.434-1.077c-0.566-0.305-1.195-0.54-1.879-0.707
				c-0.688-0.167-1.407-0.249-2.165-0.249c-1.231,0-2.338,0.242-3.324,0.729c-0.984,0.484-1.753,1.161-2.31,2.032
				c-0.554,0.871-0.834,1.845-0.834,2.919c0,0.789,0.165,1.527,0.495,2.217c0.327,0.69,0.786,1.283,1.376,1.78
				c0.588,0.495,1.3,0.883,2.133,1.157c0.831,0.276,1.723,0.419,2.677,0.419c0.89,0,1.715-0.087,2.472-0.26
				c0.76-0.168,1.409-0.409,1.952-0.719c0.545-0.311,0.95-0.685,1.22-1.126h0.327v4.261h-0.327
				c-0.248-0.257-0.519-0.383-0.822-0.383c-0.193,0-0.472,0.047-0.833,0.145c-0.96,0.276-1.712,0.456-2.261,0.547
				c-0.547,0.091-1.169,0.134-1.871,0.134c-1.617,0-3.071-0.246-4.375-0.735c-1.3-0.495-2.381-1.21-3.249-2.15
				c-0.716-0.772-1.258-1.611-1.63-2.516c-0.371-0.906-0.556-1.84-0.556-2.8c0-1.501,0.418-2.88,1.246-4.136
				c0.83-1.256,1.966-2.249,3.409-2.97c1.441-0.724,3.023-1.086,4.742-1.086c1.015,0,2.067,0.145,3.154,0.442l0.62,0.168
				c0.43,0.125,0.796,0.183,1.099,0.183c0.436,0,0.757-0.117,0.959-0.352h0.318V55.865z"/>
			<path fill="#FFFFFF" d="M160.24,61.923h8.798v-3.842c0-0.582-0.1-1.015-0.294-1.295c-0.198-0.28-0.565-0.489-1.095-0.624v-0.296
				h5.91v0.296c-0.513,0.098-0.877,0.294-1.086,0.579c-0.208,0.289-0.314,0.736-0.314,1.34V69.16c0,0.599,0.106,1.046,0.314,1.342
				c0.21,0.294,0.573,0.49,1.086,0.581v0.293h-5.91v-0.293c0.371-0.085,0.654-0.196,0.853-0.336c0.199-0.14,0.337-0.336,0.415-0.585
				c0.081-0.251,0.12-0.585,0.12-1.001v-4.726h-8.798v4.726c0,0.615,0.106,1.065,0.311,1.35c0.205,0.291,0.567,0.482,1.079,0.573
				v0.293h-5.91v-0.293c0.374-0.085,0.655-0.196,0.855-0.336c0.196-0.14,0.336-0.336,0.421-0.585
				c0.085-0.251,0.126-0.585,0.126-1.001v-11.08c0-0.582-0.101-1.015-0.307-1.295c-0.208-0.28-0.57-0.489-1.095-0.624v-0.296h5.91
				v0.296c-0.503,0.098-0.864,0.294-1.074,0.579c-0.21,0.289-0.316,0.736-0.316,1.34L160.24,61.923L160.24,61.923z"/>
			<path fill="#FFFFFF" d="M193.697,68.047c-0.192,0.296-0.416,0.504-0.667,0.632c-0.252,0.122-0.578,0.185-0.972,0.185h-8.612
				v-4.431h7.225v-2.511h-7.225v-3.546h7.87c0.513,0,0.9,0.056,1.155,0.167c0.258,0.109,0.475,0.318,0.652,0.63h0.327v-0.352h0.008
				v-3.319h-0.333c-0.005,0.006-0.011,0.011-0.014,0.016c-0.137,0.128-0.29,0.216-0.461,0.268c-0.177,0.053-0.455,0.079-0.833,0.079
				h-12.891v0.296c0.516,0.135,0.877,0.349,1.086,0.63c0.211,0.285,0.318,0.714,0.318,1.289V69.16c0,0.623-0.104,1.073-0.311,1.359
				c-0.207,0.285-0.573,0.473-1.093,0.563v0.293h13.459c0.336,0,0.6,0.025,0.789,0.075c0.192,0.048,0.366,0.148,0.522,0.288h0.33
				v-3.691L193.697,68.047L193.697,68.047z"/>
		</g>
		<path fill="#FFFFFF" d="M89.02,55.858h5.9v0.296c-0.364,0.078-0.545,0.218-0.545,0.421c0,0.091,0.047,0.246,0.14,0.465
			l5.973,12.642c0.151,0.334,0.293,0.59,0.422,0.767c0.131,0.18,0.271,0.316,0.424,0.412c0.153,0.09,0.352,0.162,0.604,0.21v0.294
			h-5.922v-0.294c0.799-0.041,1.195-0.321,1.195-0.842c0-0.22-0.063-0.462-0.188-0.727l-1.02-2.125h-7.914l-1.046,2.193
			c-0.12,0.235-0.177,0.439-0.177,0.612c0,0.258,0.112,0.47,0.341,0.636c0.226,0.167,0.506,0.252,0.845,0.252v0.294h-5.9v-0.294
			c0.372-0.069,0.648-0.185,0.831-0.347c0.186-0.164,0.393-0.479,0.617-0.95l5.95-12.259c0.109-0.22,0.165-0.412,0.165-0.59
			c0-0.399-0.23-0.655-0.694-0.772L89.02,55.858L89.02,55.858z M94.805,64.868l-2.759-5.727l-2.762,5.727H94.805z"/>
	</g>
	<path fill="#FFFFFF" d="M141.908,42.132l-0.671-3.682l-0.002-11.257h0.14l0.582-0.85l0.003-0.002V26.09h-0.726v-1.035h0.128v-0.506
		h-1.28v0.479h-12.937v-0.396h0.14l0.582-0.853v-0.253h-0.723v-1.032h0.125v-0.51h-1.277v0.485h-16.609v-0.485h-1.276v0.51h0.125
		v1.032h-0.723v0.254l0.584,0.853h0.138v0.396H95.297V24.55h-1.274v0.506h0.126v1.035h-0.727v0.252l0.582,0.845l0.002,0.006h0.143
		l-0.003,11.257l-0.671,3.682h-5.293v0.676h59.019v-0.676C147.202,42.132,141.908,42.132,141.908,42.132z M112.883,34.197v-0.341
		h0.288v0.341H112.883z M141.457,26.73l-0.182,0.271h-14.132V26.73H141.457z M112.883,35.681v-0.336h0.288v0.336H112.883z
		 M112.883,36.505v-0.627h0.288v0.627H112.883z M112.883,35.146v-0.749h0.288v0.749H112.883z M113.171,33.664h-0.288v-0.727
		c0.022-0.003,0.039-0.003,0.056-0.006c0.029-0.002,0.057-0.005,0.087-0.005c0.032,0,0.064,0.003,0.092,0.005
		c0.019,0.003,0.034,0.003,0.053,0.006V33.664z M113.406,31.316h0.529v-1.509c0-0.149-0.12-0.271-0.263-0.271
		c-0.146,0-0.267,0.122-0.267,0.271V31.316z M114.807,36.506v-3.244l-0.042-0.029c-0.464-0.322-1.08-0.503-1.739-0.503
		c-0.654,0-1.268,0.18-1.733,0.503l-0.044,0.029v3.244h-0.947v-9.44c0-0.12,0.1-0.224,0.224-0.224c0.128,0,0.23,0.104,0.23,0.224
		v0.101h0.529v-0.101c0-0.12,0.103-0.224,0.23-0.224c0.125,0,0.227,0.104,0.227,0.224v0.101h0.538v-0.101
		c0-0.12,0.1-0.224,0.227-0.224c0.125,0,0.227,0.104,0.227,0.224v0.101h0.535v-0.101c0-0.12,0.103-0.224,0.229-0.224
		c0.125,0,0.227,0.104,0.227,0.224v0.101h0.534v-0.101c0-0.12,0.104-0.224,0.23-0.224c0.125,0,0.23,0.104,0.23,0.224v0.101h0.532
		v-0.101c0-0.12,0.103-0.224,0.227-0.224c0.126,0,0.23,0.104,0.23,0.224v9.439L114.807,36.506L114.807,36.506z M112.813,31.511
		h-0.922v-1.703c0-0.255,0.205-0.465,0.461-0.465c0.252,0,0.461,0.21,0.461,0.465L112.813,31.511L112.813,31.511z M114.13,31.511
		h-0.92v-1.703c0-0.255,0.207-0.465,0.462-0.465c0.254,0,0.458,0.21,0.458,0.465V31.511z M112.084,31.316h0.529v-1.509
		c0-0.149-0.117-0.271-0.261-0.271c-0.146,0-0.268,0.122-0.268,0.271C112.084,29.808,112.084,31.316,112.084,31.316z
		 M127.807,42.132h-3.674V38.55h3.023L127.807,42.132z M137.426,33.664v-0.458c0.112,0.056,0.204,0.104,0.285,0.159v0.299
		C137.711,33.664,137.426,33.664,137.426,33.664z M137.426,35.681v-0.336h0.285v0.336H137.426z M137.426,35.146v-0.749h0.285v0.749
		H137.426z M113.364,33.664v-0.714c0.092,0.011,0.187,0.022,0.286,0.044v0.671L113.364,33.664L113.364,33.664z M127.325,38.354
		l-0.167-1.65h13.883v1.65H127.325z M141.041,27.194v0.749h-13.893v-0.749H141.041z M137.426,34.197v-0.341h0.285v0.341H137.426z
		 M112.405,33.664v-0.671c0.103-0.022,0.196-0.032,0.286-0.044v0.714L112.405,33.664L112.405,33.664z M115.908,36.506v-9.44
		c0-0.23-0.19-0.418-0.424-0.418c-0.196,0-0.367,0.134-0.409,0.322h-0.167c-0.045-0.189-0.221-0.322-0.415-0.322
		c-0.196,0-0.367,0.134-0.411,0.322h-0.168c-0.044-0.189-0.218-0.322-0.412-0.322c-0.196,0-0.369,0.134-0.412,0.322h-0.168
		c-0.045-0.189-0.215-0.322-0.411-0.322c-0.196,0-0.366,0.134-0.411,0.322h-0.17c-0.045-0.189-0.216-0.322-0.412-0.322
		c-0.193,0-0.369,0.134-0.412,0.322h-0.163c-0.047-0.189-0.216-0.322-0.415-0.322c-0.23,0-0.421,0.186-0.421,0.418v9.439h-1.675
		V25.534h9.16v10.971L115.908,36.506L115.908,36.506z M111.926,35.681v-0.336h0.283v0.336H111.926z M112.405,34.197v-0.341h0.286
		v0.341H112.405z M112.405,36.505v-0.627h0.286v0.627H112.405z M111.926,35.146v-0.749h0.283v0.749H111.926z M112.405,35.146v-0.749
		h0.286v0.749H112.405z M112.405,35.681v-0.336h0.286v0.336H112.405z M111.926,36.505v-0.627h0.283v0.627H111.926z M111.926,34.197
		v-0.341h0.283v0.341H111.926z M111.443,34.197v-0.341h0.286v0.341H111.443z M111.443,33.664v-0.299
		c0.082-0.054,0.173-0.103,0.286-0.159v0.458C111.729,33.664,111.443,33.664,111.443,33.664z M111.443,35.146v-0.749h0.286v0.749
		H111.443z M111.443,35.681v-0.336h0.286v0.336H111.443z M111.926,33.664v-0.537c0.081-0.028,0.18-0.069,0.283-0.095v0.632H111.926z
		 M111.443,36.505v-0.627h0.286v0.627H111.443z M137.426,36.505v-0.627h0.285v0.627H137.426z M134.542,35.146v-0.749h0.286v0.749
		H134.542z M134.542,35.681v-0.336h0.286v0.336H134.542z M134.542,34.197v-0.341h0.286v0.341H134.542z M134.542,36.505v-0.627h0.286
		v0.627H134.542z M135.024,35.146v-0.749h0.283v0.749H135.024z M135.024,33.664v-0.537c0.087-0.031,0.18-0.069,0.283-0.095v0.632
		H135.024z M134.542,33.664v-0.299c0.081-0.054,0.171-0.103,0.286-0.159v0.458C134.828,33.664,134.542,33.664,134.542,33.664z
		 M135.024,34.197v-0.341h0.283v0.341H135.024z M133.374,33.664v-0.458c0.117,0.056,0.207,0.104,0.286,0.159v0.299
		C133.66,33.664,133.374,33.664,133.374,33.664z M135.024,35.681v-0.336h0.283v0.336H135.024z M132.895,36.505v-0.627h0.286v0.627
		H132.895z M132.895,35.681v-0.336h0.286v0.336H132.895z M133.374,35.146v-0.749h0.286v0.749H133.374z M133.374,35.681v-0.336h0.286
		v0.336H133.374z M133.374,34.197v-0.341h0.286v0.341H133.374z M133.374,36.505v-0.627h0.286v0.627H133.374z M136.466,34.197v-0.341
		h0.283v0.341H136.466z M136.945,33.664v-0.632c0.103,0.029,0.201,0.067,0.283,0.098v0.534H136.945z M136.466,36.505v-0.627h0.283
		v0.627H136.466z M135.024,36.505v-0.627h0.283v0.627H135.024z M136.945,35.681v-0.336h0.283v0.336H136.945z M136.466,35.146v-0.749
		h0.283v0.749H136.466z M136.945,34.197v-0.341h0.283v0.341H136.945z M136.945,35.146v-0.749h0.283v0.749H136.945z M136.466,35.681
		v-0.336h0.283v0.336H136.466z M135.505,34.197v-0.341h0.282v0.341H135.505z M135.505,33.664v-0.671
		c0.101-0.022,0.195-0.032,0.282-0.044v0.714L135.505,33.664L135.505,33.664z M135.505,35.146v-0.749h0.282v0.749H135.505z
		 M136.466,33.664v-0.714c0.091,0.011,0.185,0.025,0.283,0.044v0.671L136.466,33.664L136.466,33.664z M136.945,36.505v-0.627h0.283
		v0.627H136.945z M135.505,35.681v-0.336h0.282v0.336H135.505z M135.505,36.505v-0.627h0.282v0.627H135.505z M123.171,35.681v-0.336
		h0.283v0.336H123.171z M123.171,34.197v-0.341h0.283v0.341H123.171z M122.692,36.505v-0.627h0.285v0.627H122.692z M123.171,33.664
		v-0.632c0.104,0.029,0.201,0.067,0.283,0.098v0.534H123.171z M122.692,35.681v-0.336h0.285v0.336H122.692z M132.895,35.146v-0.749
		h0.286v0.749H132.895z M123.171,35.146v-0.749h0.283v0.749H123.171z M123.171,36.505v-0.627h0.283v0.627H123.171z M122.692,35.146
		v-0.749h0.285v0.749H122.692z M121.73,35.146v-0.749h0.286v0.749H121.73z M123.654,33.664v-0.458
		c0.112,0.056,0.204,0.106,0.28,0.159v0.299C123.934,33.664,123.654,33.664,123.654,33.664z M121.73,34.197v-0.341h0.286v0.341
		H121.73z M121.73,33.664v-0.671c0.103-0.022,0.199-0.032,0.286-0.044v0.714L121.73,33.664L121.73,33.664z M121.73,36.505v-0.627
		h0.286v0.627H121.73z M121.73,35.681v-0.336h0.286v0.336H121.73z M122.692,33.664v-0.714c0.089,0.011,0.183,0.025,0.285,0.044
		v0.671L122.692,33.664L122.692,33.664z M122.692,34.197v-0.341h0.285v0.341H122.692z M101.035,42.123V38.55h0.492v3.573H101.035z
		 M133.856,42.123V38.55h0.492v3.573H133.856z M140.211,25.836v0.254h-13.064v-0.254H140.211z M140.211,25.468v0.173h-13.064v-0.173
		H140.211z M114.805,42.132V38.55h5.774v3.582H114.805z M140.407,26.085v-1.031h0.633v1.031H140.407z M140.283,24.862v-0.122h0.883
		v0.122H140.283z M123.654,34.197v-0.341h0.28v0.341H123.654z M121.25,36.505v-0.627h0.283v0.627H121.25z M123.654,36.505v-0.627
		h0.28v0.627H123.654z M123.654,35.681v-0.336h0.28v0.336H123.654z M94.343,26.085v-1.031h0.635v1.031H94.343z M123.654,35.146
		v-0.749h0.28v0.749H123.654z M108.233,25.836v0.254H95.174v-0.254H108.233z M95.102,24.741v0.122h-0.886v-0.122H95.102z
		 M108.233,25.468v0.173H95.174v-0.173H108.233z M122.209,35.146v-0.749h0.286v0.749H122.209z M114.326,35.146v-0.749h0.286v0.749
		H114.326z M122.209,35.681v-0.336h0.286v0.336H122.209z M114.326,34.197v-0.341h0.286v0.341H114.326z M114.326,33.664v-0.458
		c0.115,0.056,0.205,0.104,0.286,0.159v0.299C114.612,33.664,114.326,33.664,114.326,33.664z M126.951,24.633v0.705h-18.519v-0.705
		C108.432,24.633,126.951,24.633,126.951,24.633z M122.209,36.505v-0.627h0.286v0.627H122.209z M113.847,36.505v-0.627h0.283v0.627
		H113.847z M114.326,36.505v-0.627h0.286v0.627H114.326z M114.326,35.681v-0.336h0.286v0.336H114.326z M113.847,35.681v-0.336h0.283
		v0.336H113.847z M113.364,35.146v-0.749h0.286v0.749H113.364z M113.364,36.505v-0.627h0.286v0.627H113.364z M113.364,35.681v-0.336
		h0.286v0.336H113.364z M113.847,35.146v-0.749h0.283v0.749H113.847z M113.847,33.664v-0.632c0.103,0.029,0.201,0.067,0.283,0.098
		v0.534H113.847z M113.847,34.197v-0.341h0.283v0.341H113.847z M121.25,35.146v-0.749h0.283v0.749H121.25z M120.771,34.197v-0.341
		h0.286v0.341H120.771z M120.771,35.681v-0.336h0.286v0.336H120.771z M120.771,35.146v-0.749h0.286v0.749H120.771z M120.771,36.505
		v-0.627h0.286v0.627H120.771z M121.25,33.664v-0.537c0.087-0.031,0.182-0.069,0.283-0.095v0.632H121.25z M121.25,35.681v-0.336
		h0.283v0.336H121.25z M121.25,34.197v-0.341h0.283v0.341H121.25z M122.496,33.664h-0.286v-0.727
		c0.019-0.003,0.037-0.003,0.056-0.006c0.028-0.002,0.059-0.005,0.091-0.005c0.029,0,0.062,0.003,0.09,0.005
		c0.017,0.003,0.034,0.003,0.05,0.006C122.496,32.937,122.496,33.664,122.496,33.664z M124.133,36.506v-3.244l-0.044-0.029
		c-0.464-0.322-1.08-0.503-1.734-0.503c-0.657,0-1.274,0.18-1.737,0.503l-0.042,0.029v3.244h-0.908v-9.44
		c0-0.12,0.1-0.224,0.23-0.224c0.125,0,0.229,0.104,0.229,0.224v0.101h0.531v-0.101c0-0.12,0.103-0.224,0.23-0.224
		c0.128,0,0.23,0.104,0.23,0.224v0.101h0.532v-0.101c0-0.12,0.103-0.224,0.229-0.224c0.125,0,0.229,0.104,0.229,0.224v0.101h0.535
		v-0.101c0-0.12,0.101-0.224,0.226-0.224c0.126,0,0.23,0.104,0.23,0.224v0.101h0.534v-0.101c0-0.12,0.103-0.224,0.23-0.224
		c0.125,0,0.227,0.104,0.227,0.224v0.101h0.531v-0.101c0-0.12,0.104-0.224,0.232-0.224c0.122,0,0.224,0.104,0.224,0.224v9.439
		L124.133,36.506L124.133,36.506z M122.172,31.511h-0.922v-1.703c0-0.255,0.205-0.467,0.461-0.467c0.252,0,0.461,0.211,0.461,0.467
		L122.172,31.511L122.172,31.511z M123.491,31.511h-0.919v-1.703c0-0.255,0.207-0.467,0.458-0.467c0.254,0,0.461,0.211,0.461,0.467
		L123.491,31.511L123.491,31.511z M120.771,33.664v-0.299c0.079-0.054,0.171-0.103,0.286-0.159v0.458
		C121.057,33.664,120.771,33.664,120.771,33.664z M122.209,34.197v-0.341h0.286v0.341H122.209z M113.364,34.197v-0.341h0.286v0.341
		H113.364z M125.276,36.506v-9.44c0-0.23-0.19-0.418-0.421-0.418c-0.199,0-0.371,0.134-0.415,0.322h-0.164
		c-0.044-0.189-0.216-0.322-0.411-0.322c-0.199,0-0.367,0.134-0.414,0.322h-0.168c-0.047-0.189-0.215-0.322-0.412-0.322
		c-0.193,0-0.366,0.134-0.409,0.322h-0.168c-0.044-0.189-0.216-0.322-0.412-0.322c-0.195,0-0.369,0.134-0.412,0.322h-0.167
		c-0.045-0.189-0.216-0.322-0.412-0.322c-0.196,0-0.367,0.134-0.414,0.322h-0.165c-0.044-0.189-0.215-0.322-0.411-0.322
		c-0.233,0-0.427,0.186-0.427,0.418v9.439h-1.684V25.534h9.163v10.971L125.276,36.506L125.276,36.506z M121.447,31.316h0.529v-1.509
		c0-0.149-0.12-0.271-0.264-0.271c-0.143,0-0.264,0.122-0.264,0.271L121.447,31.316L121.447,31.316z M122.767,31.316h0.529v-1.509
		c0-0.149-0.119-0.271-0.267-0.271c-0.145,0-0.263,0.122-0.263,0.271V31.316z M102.682,33.664v-0.671
		c0.103-0.022,0.198-0.032,0.286-0.044v0.714L102.682,33.664L102.682,33.664z M98.634,35.681v-0.336h0.286v0.336H98.634z
		 M99.594,35.146v-0.749h0.286v0.749H99.594z M99.594,33.664v-0.714c0.094,0.011,0.185,0.022,0.286,0.044v0.671L99.594,33.664
		L99.594,33.664z M98.634,36.505v-0.627h0.286v0.627H98.634z M99.594,34.197v-0.341h0.286v0.341H99.594z M98.153,33.664v-0.537
		c0.082-0.028,0.182-0.069,0.285-0.095v0.632H98.153z M99.594,35.681v-0.336h0.286v0.336H99.594z M99.594,36.505v-0.627h0.286v0.627
		H99.594z M98.634,33.664v-0.671c0.103-0.022,0.193-0.032,0.286-0.044v0.714L98.634,33.664L98.634,33.664z M98.153,35.681v-0.336
		h0.285v0.336H98.153z M98.153,35.146v-0.749h0.285v0.749H98.153z M98.153,34.197v-0.341h0.285v0.341H98.153z M98.153,36.505v-0.627
		h0.285v0.627H98.153z M98.634,35.146v-0.749h0.286v0.749H98.634z M98.634,34.197v-0.341h0.286v0.341H98.634z M100.074,34.197
		v-0.341h0.285v0.341H100.074z M100.074,33.664v-0.632c0.104,0.029,0.201,0.067,0.285,0.098v0.534H100.074z M101.72,36.505v-0.627
		h0.286v0.627H101.72z M101.72,35.146v-0.749h0.286v0.749H101.72z M101.72,35.681v-0.336h0.286v0.336H101.72z M101.72,34.197v-0.341
		h0.286v0.341H101.72z M102.202,35.146v-0.749h0.286v0.749H102.202z M101.72,33.664v-0.299c0.081-0.054,0.171-0.103,0.286-0.159
		v0.458C102.006,33.664,101.72,33.664,101.72,33.664z M102.202,34.197v-0.341h0.286v0.341H102.202z M102.202,33.664v-0.537
		c0.081-0.028,0.183-0.069,0.286-0.095v0.632H102.202z M100.074,35.146v-0.749h0.285v0.749H100.074z M100.074,36.505v-0.627h0.285
		v0.627H100.074z M100.074,35.681v-0.336h0.285v0.336H100.074z M100.554,33.664v-0.458c0.117,0.056,0.207,0.106,0.285,0.159v0.299
		C100.839,33.664,100.554,33.664,100.554,33.664z M100.554,36.505v-0.627h0.285v0.627H100.554z M100.554,35.681v-0.336h0.285v0.336
		H100.554z M100.554,34.197v-0.341h0.285v0.341H100.554z M100.554,35.146v-0.749h0.285v0.749H100.554z M126.123,23.28v0.246H109.26
		V23.28H126.123z M93.675,42.123l0.651-3.573h3.154v3.573H93.675z M105.082,42.123V38.55h2.948l-0.652,3.573H105.082z
		 M108.432,23.523v-1.029h0.632v1.029H108.432z M103.161,35.146v-0.749h0.285v0.749H103.161z M94.111,27.001l-0.185-0.271h14.317
		v0.271H94.111z M103.161,35.681v-0.336h0.285v0.336H103.161z M103.161,36.505v-0.627h0.285v0.627H103.161z M94.343,38.354v-1.65
		h13.881l-0.168,1.65H94.343z M128.003,42.123l-0.649-3.573h2.947v3.573H128.003z M108.199,24.436l-0.185-0.267h19.356l-0.185,0.267
		H108.199z M127.077,22.178v0.12h-0.886v-0.12H127.077z M126.319,23.523v-1.029h0.632v1.029H126.319z M109.193,22.178v0.12h-0.886
		v-0.12H109.193z M126.123,22.911v0.174H109.26v-0.174H126.123z M97.672,36.505v-0.627h0.285v0.627H97.672z M102.202,35.681v-0.336
		h0.286v0.336H102.202z M99.704,31.316h0.528v-1.509c0-0.149-0.12-0.271-0.265-0.271c-0.146,0-0.263,0.122-0.263,0.271V31.316z
		 M97.672,33.664v-0.299c0.081-0.054,0.171-0.103,0.285-0.159v0.458C97.957,33.664,97.672,33.664,97.672,33.664z M101.022,31.316
		h0.529v-1.509c0-0.149-0.117-0.271-0.264-0.271c-0.146,0-0.264,0.122-0.264,0.271L101.022,31.316L101.022,31.316z M97.672,34.197
		v-0.341h0.285v0.341H97.672z M97.672,35.681v-0.336h0.285v0.336H97.672z M102.343,31.316h0.529v-1.509
		c0-0.149-0.119-0.271-0.261-0.271c-0.149,0-0.267,0.122-0.267,0.271L102.343,31.316L102.343,31.316z M97.672,35.146v-0.749h0.285
		v0.749H97.672z M99.256,32.926c0.029,0,0.062,0.003,0.092,0.005c0.019,0.003,0.034,0.003,0.051,0.006v0.727h-0.285v-0.727
		c0.019-0.003,0.037-0.003,0.053-0.006C99.197,32.929,99.226,32.926,99.256,32.926z M105.082,36.506v-3.244l-0.041-0.029
		c-0.465-0.322-1.082-0.503-1.737-0.503c-0.657,0-1.272,0.18-1.736,0.503l-0.042,0.029v3.244h-0.492v-3.244l-0.042-0.029
		c-0.465-0.322-1.082-0.503-1.737-0.503c-0.655,0-1.272,0.18-1.736,0.503l-0.044,0.029v3.244h-3.133v-8.367h13.89v8.367
		C108.231,36.506,105.082,36.506,105.082,36.506z M100.425,31.511h-0.919v-1.703c0-0.255,0.205-0.465,0.461-0.465
		c0.252,0,0.458,0.21,0.458,0.465L100.425,31.511L100.425,31.511z M101.748,31.511h-0.918v-1.703c0-0.255,0.205-0.465,0.458-0.465
		s0.461,0.21,0.461,0.465V31.511z M103.068,31.511h-0.922v-1.703c0-0.255,0.208-0.465,0.464-0.465c0.252,0,0.458,0.21,0.458,0.465
		L103.068,31.511L103.068,31.511z M103.446,33.664h-0.285v-0.727c0.019-0.003,0.037-0.003,0.054-0.006
		c0.026-0.002,0.057-0.005,0.089-0.005c0.032,0,0.063,0.003,0.09,0.005c0.017,0.003,0.036,0.003,0.051,0.006V33.664z M99.114,35.681
		v-0.336h0.285v0.336H99.114z M99.114,36.505v-0.627h0.285v0.627H99.114z M103.161,34.197v-0.341h0.285v0.341H103.161z
		 M99.114,35.146v-0.749h0.285v0.749H99.114z M99.114,34.197v-0.341h0.285v0.341H99.114z M131.936,35.681v-0.336h0.283v0.336
		H131.936z M130.494,34.197v-0.341h0.283v0.341H130.494z M130.494,33.664v-0.299c0.079-0.054,0.171-0.103,0.283-0.159v0.458
		C130.777,33.664,130.494,33.664,130.494,33.664z M132.51,31.316h0.531v-1.509c0-0.149-0.122-0.271-0.268-0.271
		c-0.145,0-0.263,0.122-0.263,0.271V31.316z M130.494,35.681v-0.336h0.283v0.336H130.494z M130.494,35.146v-0.749h0.283v0.749
		H130.494z M130.494,36.505v-0.627h0.283v0.627H130.494z M133.832,31.316h0.526v-1.509c0-0.149-0.119-0.271-0.265-0.271
		c-0.143,0-0.261,0.122-0.261,0.271L133.832,31.316L133.832,31.316z M136.267,33.664h-0.283v-0.727
		c0.016-0.003,0.037-0.003,0.056-0.006c0.026-0.002,0.059-0.005,0.088-0.005s0.06,0.003,0.091,0.005
		c0.017,0.003,0.032,0.003,0.048,0.006V33.664z M132.895,34.197v-0.341h0.286v0.341H132.895z M135.152,31.316h0.528v-1.509
		c0-0.149-0.12-0.271-0.265-0.271c-0.145,0-0.263,0.122-0.263,0.271V31.316z M130.975,33.664v-0.537
		c0.085-0.031,0.182-0.069,0.285-0.095v0.632H130.975z M131.936,36.505v-0.627h0.283v0.627H131.936z M132.219,33.664h-0.283v-0.727
		c0.016-0.003,0.038-0.003,0.053-0.006c0.028-0.002,0.057-0.005,0.091-0.005c0.031,0,0.06,0.003,0.091,0.005
		c0.017,0.003,0.032,0.003,0.05,0.006L132.219,33.664L132.219,33.664z M131.936,34.197v-0.341h0.283v0.341H131.936z M131.936,35.146
		v-0.749h0.283v0.749H131.936z M130.975,36.505v-0.627h0.285v0.627H130.975z M131.453,36.505v-0.627h0.286v0.627H131.453z
		 M132.414,33.664v-0.714c0.092,0.011,0.185,0.025,0.286,0.044v0.671L132.414,33.664L132.414,33.664z M132.414,35.146v-0.749h0.286
		v0.749H132.414z M132.414,34.197v-0.341h0.286v0.341H132.414z M102.202,36.505v-0.627h0.286v0.627H102.202z M130.975,34.197v-0.341
		h0.285v0.341H130.975z M132.414,36.505v-0.627h0.286v0.627H132.414z M132.414,35.681v-0.336h0.286v0.336H132.414z M135.983,34.197
		v-0.341h0.283v0.341H135.983z M131.453,35.681v-0.336h0.286v0.336H131.453z M130.975,35.146v-0.749h0.285v0.749H130.975z
		 M130.975,35.681v-0.336h0.285v0.336H130.975z M131.453,33.664v-0.671c0.103-0.022,0.196-0.032,0.286-0.044v0.714L131.453,33.664
		L131.453,33.664z M131.453,35.146v-0.749h0.286v0.749H131.453z M131.453,34.197v-0.341h0.286v0.341H131.453z M137.904,36.506
		v-3.244l-0.041-0.029c-0.464-0.322-1.08-0.503-1.736-0.503c-0.658,0-1.271,0.18-1.739,0.503l-0.041,0.029v3.244h-0.492v-3.244
		l-0.044-0.029c-0.462-0.322-1.082-0.503-1.733-0.503c-0.658,0-1.275,0.18-1.739,0.503l-0.041,0.029v3.244h-3.154v-8.367h13.893
		v8.367C141.039,36.506,137.904,36.506,137.904,36.506z M133.237,31.511h-0.922v-1.703c0-0.255,0.204-0.467,0.458-0.467
		c0.255,0,0.464,0.211,0.464,0.467L133.237,31.511L133.237,31.511z M134.554,31.511h-0.919v-1.703c0-0.255,0.205-0.467,0.458-0.467
		c0.255,0,0.461,0.211,0.461,0.467L134.554,31.511L134.554,31.511z M135.875,31.511h-0.92v-1.703c0-0.255,0.205-0.467,0.459-0.467
		s0.461,0.211,0.461,0.467V31.511z M102.682,35.681v-0.336h0.286v0.336H102.682z M104.123,36.505v-0.627h0.285v0.627H104.123z
		 M104.603,36.505v-0.627h0.283v0.627H104.603z M104.603,33.664v-0.458c0.116,0.056,0.205,0.106,0.283,0.159v0.299
		C104.886,33.664,104.603,33.664,104.603,33.664z M104.123,35.681v-0.336h0.285v0.336H104.123z M104.603,34.197v-0.341h0.283v0.341
		H104.603z M104.603,35.681v-0.336h0.283v0.336H104.603z M104.603,35.146v-0.749h0.283v0.749H104.603z M102.682,36.505v-0.627h0.286
		v0.627H102.682z M104.123,35.146v-0.749h0.285v0.749H104.123z M103.642,35.146v-0.749h0.285v0.749H103.642z M103.642,34.197v-0.341
		h0.285v0.341H103.642z M103.642,35.681v-0.336h0.285v0.336H103.642z M103.642,36.505v-0.627h0.285v0.627H103.642z M104.123,34.197
		v-0.341h0.285v0.341H104.123z M104.123,33.664v-0.632c0.103,0.029,0.199,0.067,0.285,0.098v0.534H104.123z M141.706,42.123h-3.802
		V38.55h3.154L141.706,42.123z M132.895,33.664v-0.632c0.101,0.026,0.199,0.063,0.286,0.098v0.534H132.895z M107.576,42.132
		l0.651-3.582h3.023v3.582H107.576z M135.983,35.146v-0.749h0.283v0.749H135.983z M126.961,36.704l0.168,1.65h-18.875l0.168-1.65
		H126.961z M103.642,33.664v-0.714c0.092,0.011,0.183,0.022,0.285,0.044v0.671L103.642,33.664L103.642,33.664z M135.983,35.681
		v-0.336h0.283v0.336H135.983z M135.983,36.505v-0.627h0.283v0.627H135.983z M102.682,34.197v-0.341h0.286v0.341H102.682z
		 M102.682,35.146v-0.749h0.286v0.749H102.682z M108.233,27.194v0.749h-13.89v-0.749H108.233z"/>
</g>
</svg>
